<svg version="1.1" id="Layer_1" xmlns="http://www.w3.org/2000/svg" x="0" y="0" viewBox="0 0 100 100" xml:space="preserve"><style/><g id="icon-tiwtter-rounded_1_" fill-rule="evenodd" clip-rule="evenodd"><path d="M.8 50C.8 22.8 22.8.8 49.9.8S99 22.8 99 50 77 99.2 49.9 99.2.8 77.2.8 50z" fill="#1da1f2"/><path d="M49.9 42.8l.1 1.7-1.7-.2c-6.2-.8-11.7-3.5-16.3-8.1L29.7 34l-.6 1.7c-1.2 3.7-.4 7.6 2.1 10.3 1.4 1.5 1.1 1.7-1.3.8-.8-.3-1.5-.5-1.6-.4-.2.2.6 3.4 1.2 4.7.9 1.7 2.7 3.4 4.7 4.4l1.7.8h-2c-1.9 0-2 0-1.8.8.7 2.3 3.4 4.7 6.4 5.7l2.1.7-1.9 1.1c-2.8 1.6-6 2.5-9.2 2.6-1.5 0-2.8.2-2.8.3 0 .3 4.2 2.3 6.6 3.1 7.3 2.3 16 1.3 22.5-2.6 4.6-2.7 9.3-8.2 11.4-13.5 1.2-2.8 2.3-8 2.3-10.4 0-1.6.1-1.8 2-3.7 1.1-1.1 2.2-2.3 2.4-2.7.3-.7.3-.7-1.4-.1-2.9 1-3.3.9-1.9-.7 1.1-1.1 2.3-3.1 2.3-3.7 0-.1-.5.1-1.1.4-.6.3-2 .9-3 1.2l-1.8.6-1.7-1.1c-.9-.6-2.2-1.3-2.9-1.5-1.8-.5-4.4-.4-6 .1-4.1 1.4-6.8 5.5-6.5 9.9z" fill="#fff"/></g></svg>